<svg width="17" height="19" viewBox="0 0 17 19" fill="none" xmlns="http://www.w3.org/2000/svg">
<path d="M7.66772 8.47288C4.33366 7.47516 1.94916 6.06848 0.925064 4.87167C-0.0726565 8.96421 -1.4787 15.3744 4.61295 18.107C11.2305 19.1794 13.7814 13.1121 15.3267 9.18359C13.7869 9.61297 11.0011 9.47126 7.66772 8.47354L7.66772 8.47288Z" fill="#DF8852"/>
<path d="M11.254 1.8768C11.4627 1.06753 11.1211 0.275883 10.4589 0.0777544C9.79869 -0.11973 9.05973 0.344424 8.76222 1.12471C4.8171 0.194564 1.37401 0.639467 0.674445 2.84612C0.267774 4.1281 3.10619 6.4311 7.93677 7.87719C12.7674 9.32329 16.4474 8.97071 16.8534 7.68938C17.5476 5.50039 15.0052 3.26788 11.254 1.8768Z" fill="#DF8852"/>
</svg>
