<svg width="15" height="15" viewBox="0 0 15 15" fill="none" xmlns="http://www.w3.org/2000/svg">
<path d="M7.5 8.57143C11.625 8.57143 15 11.25 15 13.3929C15 13.8191 14.8307 14.2279 14.5293 14.5293C14.2279 14.8307 13.8191 15 13.3929 15H1.60714C1.1809 15 0.772119 14.8307 0.470721 14.5293C0.169324 14.2279 0 13.8191 0 13.3929C0 11.25 3.375 8.57143 7.5 8.57143ZM7.5 0C8.49456 0 9.44839 0.395088 10.1516 1.09835C10.8549 1.80161 11.25 2.75544 11.25 3.75C11.25 4.74456 10.8549 5.69839 10.1516 6.40165C9.44839 7.10491 8.49456 7.5 7.5 7.5C6.50544 7.5 5.55161 7.10491 4.84835 6.40165C4.14509 5.69839 3.75 4.74456 3.75 3.75C3.75 2.75544 4.14509 1.80161 4.84835 1.09835C5.55161 0.395088 6.50544 0 7.5 0Z" fill="#49291A"/>
</svg>
