<svg width="9" height="10" viewBox="0 0 9 10" fill="none" xmlns="http://www.w3.org/2000/svg">
<path d="M3.82139 4.22127C2.16025 3.72419 0.972226 3.02338 0.461987 2.42711C-0.0351092 4.46605 -0.735642 7.65967 2.29941 9.02108C5.59646 9.55535 6.86742 6.53256 7.63735 4.57534C6.87015 4.78927 5.48219 4.71867 3.82139 4.22159L3.82139 4.22127Z" fill="#DF8852"/>
<path d="M5.6092 0.935053C5.71323 0.531867 5.54298 0.137463 5.21307 0.038754C4.88414 -0.0596344 4.51597 0.171611 4.36774 0.560356C2.40216 0.0969493 0.6867 0.318603 0.338156 1.41798C0.13554 2.05667 1.54973 3.20404 3.95647 3.92449C6.36322 4.64495 8.19674 4.46929 8.39902 3.83092C8.74488 2.74035 7.47821 1.6281 5.6092 0.935053Z" fill="#DF8852"/>
</svg>
