<svg width="22" height="24" viewBox="0 0 22 24" fill="none" xmlns="http://www.w3.org/2000/svg">
<path d="M18.3333 24C17.3148 24 16.4491 23.65 15.7361 22.95C15.0231 22.25 14.6667 21.4 14.6667 20.4C14.6667 20.28 14.6972 20 14.7583 19.56L6.17222 14.64C5.8463 14.94 5.46944 15.1752 5.04167 15.3456C4.61389 15.516 4.15556 15.6008 3.66667 15.6C2.64815 15.6 1.78241 15.25 1.06944 14.55C0.356481 13.85 0 13 0 12C0 11 0.356481 10.15 1.06944 9.45C1.78241 8.75 2.64815 8.4 3.66667 8.4C4.15556 8.4 4.61389 8.4852 5.04167 8.6556C5.46944 8.826 5.8463 9.0608 6.17222 9.36L14.7583 4.44C14.7176 4.3 14.6923 4.1652 14.6826 4.0356C14.6728 3.906 14.6675 3.7608 14.6667 3.6C14.6667 2.6 15.0231 1.75 15.7361 1.05C16.4491 0.35 17.3148 0 18.3333 0C19.3519 0 20.2176 0.35 20.9306 1.05C21.6435 1.75 22 2.6 22 3.6C22 4.6 21.6435 5.45 20.9306 6.15C20.2176 6.85 19.3519 7.2 18.3333 7.2C17.8444 7.2 17.3861 7.1148 16.9583 6.9444C16.5306 6.774 16.1537 6.5392 15.8278 6.24L7.24167 11.16C7.28241 11.3 7.30807 11.4352 7.31867 11.5656C7.32926 11.696 7.33415 11.8408 7.33333 12C7.33252 12.1592 7.32763 12.3044 7.31867 12.4356C7.3097 12.5668 7.28404 12.7016 7.24167 12.84L15.8278 17.76C16.1537 17.46 16.5306 17.2252 16.9583 17.0556C17.3861 16.886 17.8444 16.8008 18.3333 16.8C19.3519 16.8 20.2176 17.15 20.9306 17.85C21.6435 18.55 22 19.4 22 20.4C22 21.4 21.6435 22.25 20.9306 22.95C20.2176 23.65 19.3519 24 18.3333 24Z" fill="#DF8852"/>
</svg>
