<svg width="12" height="13" viewBox="0 0 12 13" fill="none" xmlns="http://www.w3.org/2000/svg">
<path d="M5.41328 5.98108C3.06009 5.2768 1.37711 4.28384 0.654297 3.43903C-0.0498973 6.3279 -1.04228 10.8528 3.25722 12.7817C7.92787 13.5387 9.72834 9.25584 10.819 6.48276C9.73221 6.78586 7.766 6.68582 5.41328 5.98154L5.41328 5.98108Z" fill="#48291A"/>
<path d="M7.94497 1.32504C8.09233 0.753785 7.85116 0.194972 7.38379 0.0551152C6.91783 -0.0842869 6.39627 0.243354 6.18629 0.79415C3.40181 0.13757 0.971667 0.451621 0.477915 2.00927C0.190885 2.91421 2.19425 4.53986 5.60369 5.56064C9.01312 6.58142 11.6105 6.33254 11.8971 5.42807C12.387 3.88289 10.5926 2.30698 7.94497 1.32504Z" fill="#48291A"/>
</svg>
