<svg width="1920" height="490" viewBox="0 0 1920 490" fill="none" xmlns="http://www.w3.org/2000/svg">
<rect y="140" width="1920" height="350" fill="#FFEFE1"/>
<path d="M1522.3 476.538C1525.55 476.538 1528.54 474.818 1530.13 472.04C1530.21 471.908 1531.27 470.226 1533.55 468.386C1533.9 468.16 1534.24 467.901 1534.57 467.612C1538.13 465.086 1542.48 463.618 1547.56 463.227C1548.86 465.715 1551.36 467.555 1554.4 467.939C1554.79 467.99 1555.17 468.008 1555.54 468.008C1560.03 468.008 1563.86 464.701 1564.44 460.323C1564.44 460.323 1564.59 459.227 1565.04 457.633C1565.14 457.35 1565.23 457.054 1565.3 456.764C1566.78 452.153 1569.84 446.635 1576.12 445.961C1579.52 445.595 1582.3 445.375 1584.75 445.186C1594.9 444.392 1599.98 443.995 1609.62 436.071C1611.46 434.559 1612.59 432.436 1612.8 430.086C1613.01 427.743 1612.28 425.45 1610.74 423.648C1609.72 422.451 1608.42 421.557 1606.96 421.034C1609.09 407.925 1607.59 396.744 1602.45 387.692C1595.11 374.74 1583.19 371.086 1580.56 370.419C1579.76 370.198 1577.9 369.751 1575.26 369.524L1555.72 366.393C1559.14 362.885 1562.1 358.948 1564.59 354.601C1571.28 342.909 1574.18 328.717 1572.99 313.561C1572.1 302.291 1569.04 290.782 1563.89 279.217C1574.87 278.763 1588.97 276.268 1600.43 267.916C1610.84 260.331 1617.1 249.44 1619.03 235.537C1623.65 202.295 1608.45 183.63 1594.88 173.822C1581.23 163.957 1563.06 158.521 1543.7 158.521C1531.18 158.521 1519.1 160.902 1509.7 165.23C1509.36 165.387 1509.02 165.545 1508.69 165.702C1510.26 160.978 1511.31 156.486 1511.82 152.247C1513.44 138.64 1509.32 127.604 1499.89 120.328C1493.49 115.389 1486.53 112.888 1479.17 112.888C1477.11 112.888 1475.01 113.09 1472.92 113.487C1459.73 116 1448.45 126.079 1440.62 135.226C1434.34 133.676 1427.77 132.712 1421.03 132.353C1420.03 132.303 1418.93 132.271 1417.74 132.271C1411.57 132.271 1403.37 133.002 1396.54 134.098C1389.36 111.553 1375.2 108 1367 108C1365.16 108 1363.24 108.176 1361.31 108.517C1352.03 110.173 1340.41 117.121 1337.74 140.845C1336.47 152.165 1337.68 163.737 1338.46 169.324C1336.87 171.945 1335.47 174.679 1334.28 177.495C1327.26 194.062 1328.7 210.043 1329.24 216.059C1329.28 216.519 1329.32 216.91 1329.35 217.237C1329.71 222.056 1329.62 226.522 1329.39 227.776C1325.01 239.638 1324.74 250.359 1328.56 259.707C1326.57 259.185 1324.84 258.781 1323.44 258.492C1322.49 258.29 1321.51 258.189 1320.54 258.189C1316.49 258.189 1312.65 259.928 1310 262.952C1308.01 265.232 1304.79 268.029 1302.31 270.057C1302.05 270.038 1301.78 270.026 1301.52 270.026C1298.16 270.026 1295.04 271.67 1293.16 274.429C1291.28 277.182 1290.92 280.659 1292.2 283.727L1298.15 297.951C1293.78 300.578 1290.5 304.578 1288.71 309.491C1286.54 306.203 1284.39 302.455 1282.29 298.26C1280.43 294.568 1277.35 292.055 1273.61 291.179C1272.03 290.814 1270.45 290.625 1268.89 290.625C1262.49 290.625 1256.86 293.661 1253.04 299.167C1251.42 301.491 1250.65 304.307 1250.84 307.091C1251.01 309.586 1251.54 313.422 1253.05 317.888C1252.67 317.869 1252.28 317.857 1251.88 317.857C1245.77 317.857 1234.05 320.339 1223.28 336.723C1218.16 340.572 1206.95 352.207 1209.32 378.973C1212.13 410.558 1228.26 414.817 1232.29 415.384L1514.03 471.215C1514.82 473.029 1516.19 474.522 1517.98 475.479C1519.29 476.185 1520.78 476.563 1522.28 476.563L1522.3 476.538Z" fill="#FFEFE1"/>
<path d="M1228.05 341.101C1240.74 320.994 1253.85 324.005 1256.07 324.698L1264.32 326.021C1258.69 318.014 1257.5 310.096 1257.26 306.625C1257.16 305.245 1257.55 303.847 1258.36 302.688C1261.64 297.97 1266.66 295.998 1272.15 297.283C1273.46 297.592 1275.28 298.486 1276.56 301.025C1283.54 314.909 1290.09 322.544 1295.72 326.896C1293.58 322.462 1293.07 317.554 1294.31 313.057C1295.59 308.338 1298.62 304.628 1302.82 302.6C1304.01 302.027 1305.26 301.611 1306.53 301.352L1298.16 281.314C1297.08 278.731 1299.25 275.96 1302.06 276.344C1302.74 276.439 1303.43 276.552 1304.15 276.69C1304.16 276.678 1311.04 271.437 1314.88 267.04C1316.67 264.993 1319.43 264.067 1322.12 264.634C1325.44 265.333 1330.18 266.523 1335.53 268.476C1336.78 267.002 1338.1 265.9 1339.2 265.112C1338.01 263.67 1336.95 262.152 1336.06 260.552C1331.27 251.94 1331.08 241.565 1335.49 229.722C1336.14 227.984 1336.13 221.766 1335.74 216.758C1335.72 216.406 1335.68 215.977 1335.64 215.492C1335.13 209.898 1333.79 195.044 1340.2 179.907C1341.58 176.65 1343.23 173.576 1345.14 170.679C1343.92 163.182 1337.86 119.099 1362.46 114.709C1376.94 112.126 1387.33 121.588 1391.91 141.393C1399.92 139.541 1413.31 138.243 1420.68 138.64C1428.48 139.056 1435.96 140.322 1442.97 142.388C1449.97 133.544 1461.22 122.129 1474.15 119.666C1481.88 118.192 1489.21 120.082 1495.94 125.273C1513.19 138.59 1504.28 163.573 1495.3 180.285C1500.42 176.953 1506.07 173.853 1512.42 170.931C1532.74 161.582 1567.72 162.004 1591.08 178.893C1603.25 187.687 1616.87 204.506 1612.67 234.68C1610.98 246.838 1605.57 256.312 1596.6 262.851C1582.24 273.314 1562.7 273.415 1553.58 272.779C1561.15 286.719 1565.53 300.584 1566.58 314.046C1567.68 327.955 1565.05 340.912 1558.99 351.514C1554.49 359.382 1548.18 365.745 1540.56 370.349L1574.46 375.786C1576.89 375.975 1578.46 376.384 1578.87 376.504C1580.05 376.794 1590.53 379.641 1596.84 390.759C1602.5 400.75 1602.97 414.035 1598.28 430.313C1599.45 429.551 1600.72 428.593 1602.19 427.384C1603.28 426.489 1604.9 426.634 1605.8 427.699C1606.71 428.763 1606.57 430.357 1605.48 431.245C1597.41 437.879 1593.82 438.162 1584.25 438.912C1581.75 439.107 1578.91 439.327 1575.4 439.705C1565.11 440.808 1560.79 449.646 1559.08 455.151C1559.04 455.328 1558.99 455.498 1558.92 455.662C1558.3 457.784 1558.08 459.315 1558.05 459.523C1557.88 460.796 1556.78 461.722 1555.51 461.722C1555.4 461.722 1555.29 461.715 1555.18 461.703C1553.78 461.526 1552.79 460.266 1552.97 458.887C1553.04 458.282 1553.16 457.621 1553.3 456.934C1542.25 456.241 1534.93 459.485 1530.44 462.786C1530.29 462.937 1530.13 463.076 1529.93 463.189C1529.91 463.208 1529.87 463.215 1529.84 463.233C1526.28 466.011 1524.68 468.695 1524.53 468.966C1524.06 469.797 1523.18 470.27 1522.28 470.27C1521.86 470.27 1521.44 470.169 1521.05 469.961C1519.8 469.293 1519.35 467.763 1520.03 466.541C1520.06 466.484 1520.16 466.301 1520.33 466.043L1233.34 409.172C1231.24 408.939 1218.18 406.344 1215.71 378.431C1213.4 352.377 1225.05 343.067 1228.03 341.133L1228.05 341.101ZM1312.99 358.444C1312.99 358.444 1312.97 358.469 1312.95 358.481C1312.95 358.481 1312.97 358.469 1312.98 358.444H1312.99Z" fill="#FFEFE1"/>
<path d="M1509.73 376.29C1558.65 375.269 1581.83 325.492 1548.95 269.742C1548.95 269.742 1604.02 278.429 1610.15 234.327C1619.02 170.483 1546.59 157.986 1513.53 173.205C1504.83 177.205 1496.93 181.753 1489.88 187.227" stroke="#48291A" stroke-width="7" stroke-linecap="round" stroke-linejoin="round"/>
<path d="M1568.52 241.068C1556.63 231.48 1535.77 237.597 1548.95 269.749" stroke="#48291A" stroke-width="7" stroke-linecap="round" stroke-linejoin="round"/>
<path d="M1511.74 318.134C1516.26 328.005 1520.21 341.272 1517.87 354.859C1514.04 377.184 1502.46 392.479 1468.7 392.794C1468.7 392.794 1433.1 418.64 1414.15 392.945C1402.99 377.808 1411.55 363.962 1421.76 359.029C1437.39 351.918 1455.81 359.628 1464.84 379.011" stroke="#48291A" stroke-width="7" stroke-linecap="round" stroke-linejoin="round"/>
<path d="M1470.67 307.035C1470.67 307.035 1462.86 298.946 1447.38 304.112C1428.48 310.424 1429.58 336.119 1449.18 342.399C1469.81 349.007 1497.84 341.927 1508.71 322.185C1517.97 305.359 1506.01 273.875 1489.17 258.8" stroke="#48291A" stroke-width="7" stroke-linecap="round" stroke-linejoin="round"/>
<path d="M1298.13 326.082C1294.04 317.898 1296.63 308.409 1303.93 304.889C1311.22 301.369 1320.45 305.15 1324.54 313.335C1328.63 321.519 1326.04 331.008 1318.74 334.528C1311.45 338.048 1302.22 334.267 1298.13 326.082Z" stroke="#48291A" stroke-width="7" stroke-linecap="round" stroke-linejoin="round"/>
<path d="M1354.2 367.477C1354.2 357.808 1334.53 343.861 1318.54 351.111C1305.86 356.863 1304.04 371.093 1310.68 381.26C1315.88 389.216 1329.92 399.377 1350.39 392.612C1354.43 391.282 1359.14 388.914 1363.34 382.104C1363.34 382.104 1372.54 399.377 1411.85 389.367" stroke="#48291A" stroke-width="7" stroke-linecap="round" stroke-linejoin="round"/>
<path d="M1360.21 245.238C1354.89 245.238 1350.58 241.002 1350.58 235.776C1350.58 230.551 1354.89 226.315 1360.21 226.315C1365.53 226.315 1369.84 230.551 1369.84 235.776C1369.84 241.002 1365.53 245.238 1360.21 245.238Z" fill="#48291A"/>
<path d="M1354.92 240.671C1354.04 240.671 1353.32 239.969 1353.32 239.102C1353.32 238.236 1354.04 237.534 1354.92 237.534C1355.8 237.534 1356.52 238.236 1356.52 239.102C1356.52 239.969 1355.8 240.671 1354.92 240.671Z" fill="white"/>
<path d="M1429.83 248.564C1424.51 248.564 1420.2 244.328 1420.2 239.102C1420.2 233.877 1424.51 229.641 1429.83 229.641C1435.15 229.641 1439.46 233.877 1439.46 239.102C1439.46 244.328 1435.15 248.564 1429.83 248.564Z" fill="#48291A"/>
<path d="M1424.3 243.946C1423.41 243.946 1422.7 243.244 1422.7 242.378C1422.7 241.512 1423.41 240.809 1424.3 240.809C1425.18 240.809 1425.89 241.512 1425.89 242.378C1425.89 243.244 1425.18 243.946 1424.3 243.946Z" fill="white"/>
<path d="M1463.56 271.431C1500.28 255.789 1500.51 225.678 1498.91 212.418C1498 204.846 1492.4 193.098 1489.23 185.69" stroke="#48291A" stroke-width="7" stroke-linecap="round" stroke-linejoin="round"/>
<path d="M1443.37 145.116C1436.44 142.968 1428.84 141.582 1420.56 141.141C1413 140.738 1399.01 142.206 1391.67 144.032C1330.49 159.283 1337.66 207.965 1338.32 216.557C1338.55 219.694 1338.92 227.845 1337.91 230.573C1329.58 252.942 1338.14 271.443 1369.84 278.423" stroke="#48291A" stroke-width="7" stroke-linecap="round" stroke-linejoin="round"/>
<path d="M1437.68 154.433C1437.68 154.433 1466.25 105.543 1494.37 127.245C1519.56 146.697 1482.67 195.549 1482.67 195.549" stroke="#48291A" stroke-width="7" stroke-linecap="round" stroke-linejoin="round"/>
<path d="M1389.99 144.555C1387.55 132.139 1380.9 113.972 1362.93 117.178C1338.82 121.481 1347.85 171.239 1347.85 171.239" stroke="#48291A" stroke-width="7" stroke-linecap="round" stroke-linejoin="round"/>
<path d="M1483.79 140.12C1483.79 140.12 1461.07 151.396 1463.77 171.731" stroke="#48291A" stroke-width="7" stroke-linecap="round" stroke-linejoin="round"/>
<path d="M1373.32 201.35C1370.64 201.35 1368.39 199.303 1368.22 196.638C1364.91 147.075 1399.75 140.102 1394.83 141.28C1397.58 140.618 1402.72 142.073 1403.38 144.776C1404.05 147.466 1402.38 150.174 1399.66 150.855C1398.6 151.138 1375.67 154.458 1378.45 195.977C1378.63 198.755 1376.49 201.155 1373.66 201.338C1373.55 201.344 1373.43 201.35 1373.32 201.35Z" fill="#48291A"/>
<path d="M1390.65 200.235C1387.97 200.235 1385.72 198.188 1385.54 195.523C1382.17 145.021 1412.68 139.402 1413.99 139.087C1416.74 138.432 1419.51 140.089 1420.19 142.791C1420.85 145.481 1419.19 148.19 1416.46 148.87C1415.39 149.154 1393.01 153.355 1395.78 194.862C1395.97 197.64 1393.83 200.04 1391 200.223C1390.88 200.229 1390.77 200.235 1390.66 200.235H1390.65Z" fill="#48291A"/>
<path d="M1430.06 140.259C1429.2 139.994 1428.26 139.95 1427.33 140.171C1426.02 140.486 1399.66 143.894 1403.04 194.396C1403.22 197.06 1405.47 199.108 1408.15 199.108C1408.26 199.108 1408.37 199.108 1408.49 199.095C1411.31 198.912 1413.46 196.512 1413.27 193.734C1410.49 152.228 1428.72 150.237 1429.8 149.954C1434.78 148.662 1439.67 150.288 1439.67 150.288L1442.98 143.642L1430.07 140.259H1430.06Z" fill="#48291A"/>
<path d="M1380.52 250.58C1383.9 249.893 1390.17 250.246 1394.85 251.487C1396.68 251.972 1397.1 253.572 1396.43 255.084C1395.44 257.307 1392.31 260.369 1388.06 260.325C1383.4 260.274 1379.18 256.621 1378.85 253.213C1378.72 251.896 1379.22 250.851 1380.52 250.586V250.58Z" fill="#48291A"/>
<path d="M1376.89 264.69C1383.06 268.949 1387.24 260.823 1387.24 260.823C1387.24 260.823 1390.65 272.691 1403.32 266.114" stroke="#48291A" stroke-width="7" stroke-linecap="round" stroke-linejoin="round"/>
<path d="M1410.18 371.508C1400.51 373.316 1393.69 374.929 1393.69 374.929C1381.22 383.181 1372.16 374.11 1372.16 374.11C1364.2 364.189 1339.67 353.341 1329.94 349.303C1327.33 348.22 1325.27 346.172 1324.19 343.596L1320.08 333.769C1326.36 329.794 1328.4 320.981 1324.56 313.309C1321.12 306.417 1314.03 302.65 1307.53 303.727L1298.17 281.308C1297.09 278.725 1299.26 275.953 1302.06 276.338C1302.75 276.432 1303.44 276.546 1304.15 276.684C1304.17 276.672 1311.04 271.431 1314.88 267.034C1316.67 264.986 1319.44 264.06 1322.12 264.627C1333.71 267.059 1362.47 275.513 1374.62 301.063C1374.62 301.063 1399.08 274.7 1450.38 278.543C1450.38 278.543 1452.44 278.902 1454.62 280.823C1456.7 282.656 1458.89 285.9 1459.49 291.601C1459.43 291.601 1459.36 291.601 1459.29 291.595C1459.9 291.62 1460.48 291.645 1461 291.683C1463.67 291.859 1465.73 294.052 1465.71 296.678L1465.67 303.954C1461.81 302.386 1455.7 301.327 1447.38 304.105C1428.48 310.417 1429.58 336.112 1449.18 342.393C1454.28 344.024 1459.82 344.818 1465.45 344.793L1465.38 358.072C1465.36 362.91 1461.25 366.721 1456.34 366.557C1446.63 356.673 1433.42 353.725 1421.76 359.029C1416.85 361.404 1412.32 365.845 1410.19 371.502L1410.18 371.508ZM1387.49 299.406C1387.73 299.683 1388.06 299.828 1388.41 299.841C1388.72 299.853 1389.04 299.752 1389.29 299.538C1389.35 299.494 1394.26 295.387 1404.12 291.834C1413.22 288.552 1428.51 285.088 1449.68 287.217C1450.38 287.28 1451.02 286.782 1451.09 286.089C1451.16 285.396 1450.64 284.779 1449.94 284.71C1408.24 280.514 1388.43 296.93 1387.61 297.636C1387.08 298.089 1387.02 298.883 1387.48 299.412L1387.49 299.406ZM1320.74 274.839C1320.79 275.531 1321.39 276.054 1322.1 276.023C1322.23 276.023 1335.68 275.639 1363.9 300.584C1364.13 300.786 1364.42 300.893 1364.71 300.905C1365.07 300.918 1365.45 300.779 1365.71 300.489C1366.18 299.973 1366.14 299.173 1365.61 298.713C1336.37 272.861 1322.5 273.478 1321.93 273.516C1321.22 273.56 1320.7 274.158 1320.74 274.845V274.839ZM1393.68 367.118L1383.68 307.538C1420.44 295.727 1442.77 293 1455.05 292.811C1455.76 292.798 1456.32 292.225 1456.31 291.532C1456.3 290.833 1455.71 290.278 1455.01 290.291C1442.43 290.486 1419.53 293.277 1381.85 305.472C1381.85 305.472 1381.84 305.472 1381.81 305.485C1381.79 305.491 1381.76 305.497 1381.72 305.51C1381.72 305.51 1381.72 305.51 1381.71 305.51C1381.5 305.567 1381.08 305.68 1380.47 305.806C1380.45 305.806 1380.43 305.812 1380.42 305.819C1380.31 305.844 1380.19 305.863 1380.07 305.888C1380.04 305.894 1380 305.901 1379.96 305.907C1379.85 305.926 1379.74 305.951 1379.62 305.97C1379.59 305.97 1379.56 305.983 1379.52 305.989C1379.4 306.014 1379.27 306.033 1379.13 306.058C1379.09 306.064 1379.04 306.071 1378.99 306.083C1378.86 306.102 1378.74 306.127 1378.6 306.146C1378.54 306.153 1378.48 306.165 1378.42 306.172C1378.29 306.19 1378.16 306.209 1378.02 306.228C1377.96 306.235 1377.9 306.241 1377.83 306.253C1377.69 306.272 1377.55 306.291 1377.4 306.31C1377.33 306.316 1377.25 306.329 1377.18 306.335C1377.04 306.354 1376.9 306.367 1376.74 306.379C1376.66 306.386 1376.58 306.392 1376.5 306.405C1376.35 306.417 1376.2 306.436 1376.04 306.449C1375.95 306.455 1375.86 306.461 1375.77 306.468C1375.61 306.48 1375.46 306.493 1375.31 306.499C1375.21 306.505 1375.11 306.512 1375 306.518C1374.84 306.524 1374.69 306.537 1374.53 306.543C1374.43 306.543 1374.32 306.549 1374.21 306.556C1374.05 306.562 1373.89 306.568 1373.72 306.575C1373.61 306.575 1373.49 306.575 1373.37 306.581C1373.21 306.581 1373.04 306.587 1372.88 306.587C1372.76 306.587 1372.63 306.587 1372.51 306.587C1372.34 306.587 1372.18 306.587 1372.01 306.587C1371.88 306.587 1371.75 306.587 1371.62 306.581C1371.45 306.581 1371.28 306.575 1371.11 306.568C1370.97 306.568 1370.83 306.556 1370.69 306.549C1370.52 306.543 1370.34 306.537 1370.17 306.524C1370.03 306.518 1369.88 306.505 1369.73 306.499C1369.56 306.486 1369.38 306.48 1369.2 306.461C1369.06 306.449 1368.9 306.436 1368.75 306.424C1368.57 306.411 1368.39 306.392 1368.21 306.379C1368.05 306.367 1367.89 306.348 1367.73 306.329C1367.55 306.31 1367.37 306.291 1367.19 306.266C1367.03 306.247 1366.86 306.222 1366.7 306.203C1366.51 306.178 1366.33 306.159 1366.14 306.127C1365.97 306.102 1365.8 306.077 1365.63 306.046C1365.45 306.014 1365.27 305.989 1365.08 305.957C1364.9 305.926 1364.72 305.894 1364.55 305.863C1364.36 305.831 1364.18 305.8 1363.99 305.762C1363.8 305.724 1363.62 305.686 1363.44 305.649C1363.25 305.611 1363.07 305.573 1362.88 305.529C1362.68 305.485 1362.49 305.441 1362.3 305.397C1362.11 305.353 1361.93 305.309 1361.74 305.264C1361.54 305.214 1361.35 305.164 1361.15 305.113C1360.96 305.063 1360.78 305.019 1360.59 304.962C1360.39 304.905 1360.18 304.849 1359.98 304.786C1359.82 304.742 1359.66 304.697 1359.51 304.647C1356.86 302.669 1331.07 283.708 1310.56 277.075C1309.89 276.861 1309.17 277.22 1308.94 277.875C1308.72 278.536 1309.09 279.248 1309.76 279.469C1329.17 285.749 1354.34 303.998 1357.75 306.505L1368.61 362.488C1368.74 363.168 1369.41 363.615 1370.11 363.489C1370.8 363.357 1371.26 362.702 1371.13 362.015L1360.56 307.57C1360.74 307.614 1360.91 307.652 1361.09 307.696C1361.44 307.784 1361.79 307.872 1362.14 307.948C1362.38 308.005 1362.62 308.049 1362.86 308.099C1363.18 308.168 1363.51 308.238 1363.84 308.294C1364.08 308.339 1364.32 308.383 1364.55 308.42C1364.86 308.477 1365.17 308.527 1365.48 308.572C1365.72 308.609 1365.95 308.641 1366.19 308.672C1366.48 308.71 1366.77 308.748 1367.06 308.786C1367.3 308.811 1367.53 308.842 1367.76 308.868C1368.04 308.899 1368.31 308.918 1368.59 308.943C1368.82 308.962 1369.05 308.981 1369.27 309C1369.54 309.019 1369.81 309.031 1370.06 309.05C1370.28 309.063 1370.5 309.076 1370.72 309.082C1370.75 309.082 1370.79 309.082 1370.82 309.082C1371.07 309.088 1371.3 309.094 1371.54 309.101C1371.72 309.101 1371.91 309.113 1372.09 309.113C1372.51 309.113 1372.93 309.113 1373.33 309.113C1373.53 309.113 1373.72 309.101 1373.91 309.094C1374.13 309.088 1374.34 309.082 1374.56 309.076C1374.76 309.069 1374.96 309.057 1375.16 309.044C1375.34 309.031 1375.53 309.025 1375.7 309.013C1375.9 309 1376.09 308.981 1376.28 308.968C1376.45 308.956 1376.61 308.943 1376.77 308.924C1376.96 308.905 1377.14 308.887 1377.32 308.868C1377.47 308.849 1377.62 308.836 1377.76 308.817C1377.93 308.798 1378.11 308.773 1378.27 308.754C1378.41 308.735 1378.54 308.716 1378.66 308.698C1378.83 308.672 1378.99 308.653 1379.14 308.628C1379.26 308.609 1379.37 308.59 1379.48 308.572C1379.63 308.546 1379.78 308.521 1379.92 308.496C1380.01 308.477 1380.09 308.464 1380.18 308.446C1380.56 308.376 1380.9 308.307 1381.19 308.244L1391.13 367.527C1391.24 368.126 1391.75 368.56 1392.35 368.579C1392.43 368.579 1392.52 368.579 1392.6 368.56C1393.3 368.447 1393.78 367.798 1393.66 367.112L1393.68 367.118Z" fill="#48291A"/>
<path d="M1437.43 311.154C1437.43 311.154 1440.48 317.618 1449.16 317.082" stroke="#48291A" stroke-width="7" stroke-linecap="round" stroke-linejoin="round"/>
<path d="M1433.82 321.429C1433.82 321.429 1436.87 327.892 1445.55 327.356" stroke="#48291A" stroke-width="7" stroke-linecap="round" stroke-linejoin="round"/>
<path d="M1323.66 311.747C1323.66 311.747 1321.22 316.925 1314.27 316.496" stroke="#48291A" stroke-width="7" stroke-linecap="round" stroke-linejoin="round"/>
<path d="M1326.5 319.041C1326.5 319.041 1324.06 324.219 1317.11 323.791" stroke="#48291A" stroke-width="7" stroke-linecap="round" stroke-linejoin="round"/>
<path d="M1425.57 357.606C1425.57 357.606 1422.66 362.916 1430.36 370.576" stroke="#48291A" stroke-width="7" stroke-linecap="round" stroke-linejoin="round"/>
<path d="M1416.15 362.834C1416.15 362.834 1412.56 367.729 1419.19 376.309" stroke="#48291A" stroke-width="7" stroke-linecap="round" stroke-linejoin="round"/>
<path d="M1318.54 351.111C1318.54 351.111 1316.1 355.546 1322.53 361.94" stroke="#48291A" stroke-width="7" stroke-linecap="round" stroke-linejoin="round"/>
<path d="M1310.9 356.976C1310.9 356.976 1307.85 361.02 1313.28 368.252" stroke="#48291A" stroke-width="7" stroke-linecap="round" stroke-linejoin="round"/>
<path d="M1581.83 187.599C1560.17 183.504 1542 190.314 1529.28 207.291C1508.65 234.812 1517.37 289.749 1518.15 294.549C1518.26 296.439 1522.13 312.339 1512.44 319.526C1514.18 323.287 1516.1 328.591 1517.18 335.199C1534.98 324.408 1530.14 294.121 1530.04 292.848C1530.02 292.685 1530 292.521 1529.98 292.357C1529.96 292.231 1526.25 275.563 1526.57 259.909C1526.98 239.82 1531.13 223.952 1538.57 214.018C1548.55 200.708 1562.26 195.542 1579.33 198.679C1592.83 201.161 1603.5 208.021 1603.61 208.091C1605.3 209.193 1607.98 211.045 1609.98 213.193C1608.52 207.977 1606.19 199.983 1603.25 195.813C1598.19 193.382 1590.11 189.167 1581.83 187.599Z" fill="#48291A"/>
<path d="M1534.75 167.586C1531.25 168.235 1524.94 171.951 1522.21 174.194C1512.28 182.389 1503.14 193.911 1497.72 208.5C1498.07 209.886 1498.35 211.209 1498.49 212.418C1499.57 221.3 1499.82 237.748 1488.82 252.337C1488.64 254.082 1488.46 255.789 1488.26 257.446C1490.49 259.796 1494.32 264.117 1498.22 269.831C1499.18 263.638 1499.99 256.974 1500.65 249.799C1503.49 219.02 1512.8 196.09 1527.55 183.498C1538.36 174.269 1547.12 172.008 1547.58 171.857C1550.16 171.013 1557.67 169.009 1561.79 168.568C1553.01 167.365 1542.66 166.383 1534.75 167.592L1534.75 167.586Z" fill="#48291A"/>
<path d="M1522.31 467.719C1522.31 467.719 1531.27 451.637 1556.59 454.673" stroke="#48291A" stroke-width="7" stroke-linecap="round" stroke-linejoin="round"/>
<path d="M1555.53 459.183C1555.53 459.183 1558.15 439 1575.14 437.179C1592.13 435.359 1594.44 437.028 1603.86 429.286" stroke="#48291A" stroke-width="7" stroke-linecap="round" stroke-linejoin="round"/>
<path d="M1594.11 435.025C1610.93 386.35 1578.22 378.917 1578.22 378.917C1578.22 378.917 1552.33 370.847 1530.71 408.278C1514.03 437.154 1528.62 461.004 1528.62 461.004" stroke="#48291A" stroke-width="7" stroke-linecap="round" stroke-linejoin="round"/>
<path d="M1532.64 371.609L1578.23 378.917" stroke="#48291A" stroke-width="7" stroke-linecap="round" stroke-linejoin="round"/>
<path d="M1522.72 463.914L1233.75 406.653C1233.75 406.653 1220.76 406.054 1218.29 378.186C1215.82 350.318 1229.92 342.935 1229.92 342.935C1242.69 322.298 1255.45 327.155 1255.45 327.155L1269.75 329.448L1270.62 329.586C1261.56 320.477 1260.06 309.983 1259.82 306.455C1259.76 305.624 1260 304.798 1260.48 304.105C1264.05 298.946 1268.84 299.097 1271.55 299.734C1272.82 300.03 1273.69 300.994 1274.26 302.14C1288.72 330.909 1301.65 333.901 1308.79 335.52" stroke="#48291A" stroke-width="7" stroke-linecap="round" stroke-linejoin="round"/>
<path d="M1219.05 360.989L1248.04 365.896" stroke="#48291A" stroke-width="4" stroke-linecap="round" stroke-linejoin="round"/>
<path d="M1228.28 378.186L1254.83 388.044" stroke="#48291A" stroke-width="4" stroke-linecap="round" stroke-linejoin="round"/>
<path d="M1220.58 390.986L1237.23 393.815" stroke="#48291A" stroke-width="4" stroke-linecap="round" stroke-linejoin="round"/>
<path d="M1229.92 342.935L1253.29 352.239" stroke="#48291A" stroke-width="4" stroke-linecap="round" stroke-linejoin="round"/>
<path d="M1243.4 336.156C1243.4 336.156 1256.37 344.957 1276.14 345.87" stroke="#48291A" stroke-width="4" stroke-linecap="round" stroke-linejoin="round"/>
<path d="M1545.06 389.821L1526.29 387.137" stroke="#48291A" stroke-width="4" stroke-linecap="round" stroke-linejoin="round"/>
<path d="M1536.53 399.39C1536.53 399.39 1523.2 394.325 1511.47 395.282" stroke="#48291A" stroke-width="4" stroke-linecap="round" stroke-linejoin="round"/>
<path d="M1492.32 407.465C1492.32 407.465 1497.57 409.891 1511.47 409.891" stroke="#48291A" stroke-width="4" stroke-linecap="round" stroke-linejoin="round"/>
<path d="M1468.85 420.82C1468.85 420.82 1476.23 417.431 1522.72 429.293" stroke="#48291A" stroke-width="4" stroke-linecap="round" stroke-linejoin="round"/>
<path d="M1497.26 435.082C1497.26 435.082 1513.26 436.335 1523.02 442.383" stroke="#48291A" stroke-width="4" stroke-linecap="round" stroke-linejoin="round"/>
<path d="M1545.06 404.335C1545.06 404.335 1556.15 383.295 1575.71 392.196" stroke="#48291A" stroke-width="4" stroke-linecap="round" stroke-linejoin="round"/>
<path d="M1580.85 397.166C1580.85 397.166 1590.74 407.113 1586.82 429.293" stroke="#48291A" stroke-width="4" stroke-linecap="round" stroke-linejoin="round"/>
<path d="M1539.45 414.653C1539.45 414.653 1524.42 426.326 1538.22 456.096" stroke="#48291A" stroke-width="4" stroke-linecap="round" stroke-linejoin="round"/>
<path d="M1573.65 404.334C1573.65 404.334 1585.95 412.328 1578.23 436.877" stroke="#48291A" stroke-width="4" stroke-linecap="round" stroke-linejoin="round"/>
<path d="M1563.56 401.903C1563.56 401.903 1545.65 406.558 1542.76 431.642C1539.88 456.726 1548.31 454.339 1548.31 454.339" stroke="#48291A" stroke-width="4" stroke-linecap="round" stroke-linejoin="round"/>
<path d="M1556.59 451.265C1556.59 451.265 1542.77 431.403 1560.38 418.086C1572.83 408.681 1575.71 424.826 1572.62 428.152" stroke="#48291A" stroke-width="4" stroke-linecap="round" stroke-linejoin="round"/>
<path d="M1564.95 423.856C1564.95 423.856 1555.8 434.042 1566.24 440.405" stroke="#48291A" stroke-width="4" stroke-linecap="round" stroke-linejoin="round"/>
<path d="M1265.03 308.402C1265.03 308.402 1268.45 309.959 1271.09 307.035" stroke="#48291A" stroke-width="4" stroke-linecap="round" stroke-linejoin="round"/>
<path d="M1271.1 122.185C1270.92 121.374 1270.98 120.507 1271.31 119.678C1272.33 117.109 1274.22 114.773 1277.1 112.539C1278.66 111.322 1280.2 110.373 1281.73 109.684C1284.12 102.081 1288.85 97.2292 1294.75 96.3473C1297.19 95.9827 1299.46 97.6507 1299.85 100.036C1300.22 102.439 1298.54 104.684 1296.09 105.048C1294.31 105.315 1292.82 106.923 1291.71 108.925C1294.28 109.767 1296.46 111.422 1297.74 113.639C1299.08 115.96 1299.29 118.887 1298.3 121.469C1297.39 123.861 1295.55 125.696 1293.24 126.501C1288.2 128.257 1283.07 124.826 1281.4 120.508C1280.53 121.338 1279.95 122.119 1279.65 122.877C1278.75 125.141 1276.15 126.26 1273.85 125.375C1272.39 124.815 1271.4 123.586 1271.1 122.184V122.185Z" fill="#48291A"/>
<path d="M1295.02 99.2904C1293.98 99.4481 1292.97 99.8115 1292.03 100.295C1291.63 100.506 1291.24 100.749 1290.86 101.017C1290.39 101.359 1289.93 101.721 1289.5 102.121C1288.72 102.853 1288.04 103.693 1287.43 104.567C1286.87 105.373 1286.39 106.228 1285.96 107.109C1285.48 108.097 1285.07 109.116 1284.72 110.153C1284.35 111.247 1284.04 112.367 1283.85 113.504C1283.72 114.221 1283.63 114.949 1283.6 115.679C1283.58 116.408 1283.64 117.129 1283.76 117.85C1283.86 118.486 1284.05 119.096 1284.3 119.688C1284.52 120.193 1284.77 120.668 1285.11 121.106C1285.48 121.585 1285.86 122.039 1286.34 122.422C1286.81 122.805 1287.29 123.146 1287.84 123.397C1288.38 123.648 1288.93 123.856 1289.52 123.939C1289.88 123.988 1290.23 124.038 1290.58 124.028C1290.94 124.018 1291.3 123.971 1291.65 123.9C1291.88 123.853 1292.1 123.783 1292.32 123.697C1292.62 123.574 1292.93 123.451 1293.2 123.278C1293.48 123.105 1293.74 122.911 1293.98 122.701C1294.13 122.568 1294.27 122.423 1294.4 122.268C1294.75 121.859 1295.06 121.433 1295.28 120.947C1295.5 120.46 1295.7 119.962 1295.79 119.432C1295.89 118.902 1295.95 118.349 1295.92 117.804C1295.88 117.26 1295.8 116.722 1295.63 116.21C1295.46 115.698 1295.22 115.167 1294.9 114.706C1294.57 114.221 1294.18 113.76 1293.73 113.372C1292.81 112.577 1291.75 112.004 1290.58 111.647C1289.98 111.466 1289.38 111.37 1288.76 111.299C1288.26 111.241 1287.76 111.228 1287.27 111.26C1286 111.343 1284.75 111.633 1283.58 112.115C1282.93 112.381 1282.3 112.667 1281.69 113.008C1281.17 113.295 1280.68 113.611 1280.19 113.945C1279.16 114.658 1278.16 115.438 1277.25 116.299C1276.85 116.683 1276.46 117.088 1276.1 117.515C1275.67 118.029 1275.26 118.566 1274.9 119.138C1274.55 119.709 1274.29 120.284 1274.05 120.89C1273.98 121.084 1273.98 121.278 1274.02 121.473C1274.03 121.667 1274.09 121.848 1274.2 122.016C1274.29 122.187 1274.42 122.322 1274.58 122.426C1274.72 122.555 1274.89 122.642 1275.08 122.687C1275.46 122.772 1275.89 122.754 1276.23 122.54L1276.53 122.311C1276.72 122.128 1276.84 121.914 1276.91 121.665C1276.94 121.597 1276.97 121.527 1277 121.459L1276.85 121.808C1277.19 121.01 1277.66 120.268 1278.19 119.582L1277.96 119.878C1278.67 118.981 1279.5 118.185 1280.38 117.455C1280.64 117.244 1280.9 117.039 1281.17 116.838L1280.86 117.067C1281.79 116.368 1282.76 115.729 1283.8 115.208C1284.09 115.061 1284.39 114.923 1284.69 114.797L1284.34 114.944C1285.22 114.579 1286.14 114.313 1287.09 114.186L1286.7 114.238C1287.42 114.145 1288.15 114.141 1288.87 114.234L1288.48 114.183C1289.16 114.274 1289.84 114.449 1290.48 114.713L1290.12 114.565C1290.65 114.788 1291.16 115.07 1291.62 115.416L1291.32 115.187C1291.71 115.487 1292.07 115.832 1292.38 116.222L1292.15 115.926C1292.4 116.25 1292.62 116.599 1292.78 116.976L1292.63 116.626C1292.8 117.012 1292.9 117.416 1292.96 117.832L1292.91 117.444C1292.97 117.9 1292.97 118.362 1292.91 118.818L1292.96 118.43C1292.9 118.875 1292.78 119.309 1292.61 119.723L1292.76 119.374C1292.6 119.736 1292.4 120.078 1292.16 120.389L1292.39 120.093C1292.19 120.349 1291.96 120.582 1291.7 120.782L1292 120.553C1291.75 120.745 1291.47 120.904 1291.18 121.025L1291.53 120.878C1291.24 120.998 1290.93 121.081 1290.61 121.125L1291 121.073C1290.65 121.12 1290.29 121.117 1289.94 121.071L1290.33 121.122C1289.93 121.067 1289.54 120.957 1289.16 120.803L1289.52 120.95C1289.08 120.765 1288.66 120.521 1288.28 120.231L1288.58 120.46C1288.17 120.146 1287.8 119.783 1287.48 119.379L1287.72 119.675C1287.41 119.28 1287.15 118.849 1286.95 118.389L1287.1 118.738C1286.85 118.147 1286.69 117.519 1286.6 116.885L1286.66 117.273C1286.53 116.325 1286.56 115.364 1286.69 114.418L1286.64 114.806C1286.85 113.239 1287.3 111.692 1287.85 110.208C1287.98 109.838 1288.13 109.472 1288.28 109.11L1288.13 109.459C1288.63 108.317 1289.21 107.21 1289.91 106.18C1290.11 105.894 1290.31 105.613 1290.52 105.341L1290.29 105.637C1290.93 104.83 1291.65 104.088 1292.47 103.463L1292.17 103.692C1292.79 103.217 1293.47 102.817 1294.2 102.513L1293.84 102.66C1294.48 102.398 1295.14 102.213 1295.82 102.111C1296.01 102.065 1296.18 101.979 1296.32 101.849C1296.49 101.746 1296.61 101.61 1296.71 101.439C1296.82 101.271 1296.87 101.09 1296.88 100.896C1296.93 100.702 1296.92 100.508 1296.86 100.313C1296.74 99.9602 1296.52 99.6188 1296.17 99.4404L1295.82 99.293C1295.56 99.2231 1295.29 99.2231 1295.03 99.293L1295.02 99.2904Z" fill="#FFEFE1"/>
<path d="M1555.73 99.6394C1553.96 98.9934 1552.7 97.6965 1551.81 96.3262C1550.23 96.7974 1548.42 96.9722 1546.65 96.3262C1545.24 95.8118 1544.03 94.8295 1543.15 93.4809C1541.9 91.4997 1541.67 89.2953 1542.46 87.2092C1542.78 86.3567 1543.26 85.5442 1543.91 84.7517C1542.87 82.8421 1542.75 80.6128 1543.56 78.46C1544.64 75.5964 1547.63 72.9425 1552.66 74.0031C1553.02 73.5818 1553.4 73.1839 1553.81 72.8126C1556.02 70.7981 1558.89 70.2254 1561.67 71.241C1564.16 72.1467 1565.8 74.2395 1566.17 76.9833C1566.26 77.5993 1566.28 78.2369 1566.24 78.9012C1567.73 79.6255 1568.85 80.5212 1569.67 81.6167C1571.1 83.5414 1571.39 85.9072 1570.49 88.2864C1569.61 90.5973 1567.87 92.2688 1565.59 92.9914C1565.55 93.0031 1565.51 93.0147 1565.47 93.028C1565.4 93.8888 1565.23 94.6813 1564.95 95.4189C1564.17 97.5033 1562.53 99.0251 1560.34 99.7044C1558.8 100.194 1557.19 100.174 1555.72 99.6378L1555.73 99.6394Z" fill="#48291A"/>
<path d="M1550.47 84.9764C1549.23 84.3021 1548.38 83.5546 1547.91 82.7321C1547.45 81.9113 1547.4 81.0006 1547.78 80.0017C1548.49 78.1253 1550.23 77.6941 1553.01 78.708C1553.48 78.8795 1553.85 79.0277 1554.11 79.1526L1554.55 79.3523C1555.13 78.0387 1555.9 76.9415 1556.87 76.0608C1557.84 75.1801 1558.92 74.957 1560.11 75.3898C1561.03 75.7245 1561.56 76.4554 1561.72 77.5775C1561.87 78.7014 1561.64 80.1082 1561.03 81.7998C1562.01 82.0462 1562.74 82.256 1563.21 82.4274C1564.57 82.9252 1565.51 83.5263 1566.04 84.2305C1566.56 84.9348 1566.64 85.7739 1566.27 86.7496C1565.88 87.7985 1565.19 88.4761 1564.21 88.7841C1563.24 89.0938 1561.96 89.0571 1560.38 88.6759C1561.05 91.0018 1561.17 92.7366 1560.74 93.8821C1560.44 94.6862 1559.85 95.2223 1558.99 95.4904C1558.38 95.6835 1557.82 95.6852 1557.29 95.4954C1556.08 95.0525 1555.06 93.4758 1554.26 90.767L1554.11 90.2559L1553.66 90.5489C1551.25 92.0806 1549.43 92.625 1548.22 92.1822C1547.72 92.0007 1547.29 91.6378 1546.94 91.09C1546.46 90.3341 1546.37 89.5533 1546.68 88.7491C1547.11 87.6037 1548.35 86.3666 1550.41 85.0364L1550.47 84.9764H1550.47Z" fill="#FFEFE1"/>
<path d="M1449.9 66.6089C1449.01 66.284 1448.38 65.6318 1447.93 64.9426C1447.14 65.1796 1446.23 65.2675 1445.34 64.9426C1444.63 64.6839 1444.02 64.1899 1443.58 63.5116C1442.95 62.5152 1442.83 61.4066 1443.23 60.3574C1443.39 59.9287 1443.63 59.5201 1443.96 59.1215C1443.44 58.1611 1443.38 57.0399 1443.79 55.9573C1444.33 54.5171 1445.83 53.1824 1448.36 53.7158C1448.54 53.5039 1448.73 53.3038 1448.94 53.1171C1450.05 52.1039 1451.49 51.8159 1452.89 52.3266C1454.14 52.7821 1454.97 53.8347 1455.16 55.2146C1455.2 55.5244 1455.21 55.8451 1455.19 56.1792C1455.94 56.5434 1456.5 56.9939 1456.91 57.5449C1457.63 58.5128 1457.78 59.7026 1457.33 60.8992C1456.89 62.0614 1456.01 62.9021 1454.86 63.2655C1454.84 63.2713 1454.82 63.2772 1454.8 63.2839C1454.77 63.7168 1454.68 64.1154 1454.54 64.4863C1454.15 65.5346 1453.32 66.2999 1452.22 66.6416C1451.45 66.8878 1450.64 66.8777 1449.9 66.6081L1449.9 66.6089Z" fill="#48291A"/>
<path d="M1447.26 59.2345C1446.64 58.8953 1446.21 58.5194 1445.97 58.1058C1445.74 57.6929 1445.72 57.2349 1445.91 56.7325C1446.26 55.7889 1447.14 55.572 1448.54 56.0819C1448.77 56.1682 1448.96 56.2427 1449.09 56.3055L1449.31 56.406C1449.6 55.7453 1449.99 55.1935 1450.48 54.7506C1450.96 54.3076 1451.51 54.1954 1452.11 54.4131C1452.57 54.5814 1452.84 54.949 1452.92 55.5134C1452.99 56.0786 1452.88 56.7861 1452.57 57.6368C1453.06 57.7608 1453.43 57.8663 1453.67 57.9525C1454.35 58.2029 1454.83 58.5052 1455.09 58.8593C1455.35 59.2135 1455.39 59.6355 1455.21 60.1262C1455.01 60.6537 1454.66 60.9945 1454.17 61.1494C1453.68 61.3052 1453.04 61.2868 1452.24 61.095C1452.58 62.2648 1452.64 63.1373 1452.43 63.7133C1452.27 64.1178 1451.98 64.3874 1451.55 64.5222C1451.24 64.6193 1450.95 64.6202 1450.69 64.5247C1450.08 64.302 1449.57 63.509 1449.16 62.1467L1449.09 61.8896L1448.86 62.037C1447.65 62.8073 1446.74 63.0811 1446.13 62.8584C1445.88 62.7672 1445.66 62.5846 1445.48 62.3091C1445.24 61.929 1445.2 61.5363 1445.35 61.1319C1445.57 60.5558 1446.2 59.9336 1447.23 59.2646L1447.26 59.2345H1447.26Z" fill="#FFEFE1"/>
<path d="M1292.2 187.161C1290.32 186.538 1289 185.156 1288.47 183.269C1288.26 182.516 1288.17 181.691 1288.2 180.781C1284.57 178.345 1284.76 175.603 1285.29 174.054C1285.93 172.201 1287.43 170.925 1289.41 170.55C1290.14 170.415 1290.95 170.385 1291.87 170.463C1294.86 166.356 1298.31 166.887 1299.78 167.376C1301.18 167.839 1304.03 169.385 1303.66 174.22C1304.35 174.631 1304.92 175.062 1305.38 175.518C1306.86 176.977 1307.33 178.894 1306.68 180.78C1306.05 182.64 1304.58 183.922 1302.56 184.389C1301.72 184.583 1300.78 184.642 1299.71 184.566C1296.88 188.161 1293.61 187.627 1292.2 187.16V187.161Z" fill="#48291A"/>
<path d="M1290.03 173.718C1290.86 173.563 1292.03 173.654 1293.54 173.996C1295.07 170.979 1296.8 169.791 1298.74 170.433C1300.42 170.99 1300.85 172.863 1300.02 176.05C1301.45 176.625 1302.46 177.206 1303.06 177.792C1303.65 178.378 1303.82 179.031 1303.58 179.751C1303.3 180.542 1302.72 181.042 1301.81 181.252C1300.9 181.461 1299.66 181.405 1298.08 181.082C1296.69 183.704 1295.08 184.712 1293.25 184.105C1292.41 183.827 1291.87 183.263 1291.63 182.413C1291.39 181.564 1291.43 180.441 1291.75 179.045C1289.04 177.807 1287.92 176.487 1288.4 175.085C1288.66 174.33 1289.21 173.875 1290.03 173.718H1290.03Z" fill="#FFEFE1"/>
<path d="M1316.38 30.1588C1315.61 28.8439 1315.56 27.3643 1316.24 25.9923C1316.51 25.4444 1316.89 24.9168 1317.39 24.4019C1316.54 21.1366 1318.1 19.6305 1319.22 18.9918C1320.56 18.2278 1322.11 18.2395 1323.47 19.0218C1323.96 19.3066 1324.45 19.6995 1324.95 20.2112C1328.85 19.3164 1330.59 21.3701 1331.19 22.4017C1331.77 23.3796 1332.62 25.725 1329.86 28.366C1330.05 28.9566 1330.16 29.4981 1330.19 29.9983C1330.29 31.5972 1329.56 32.9593 1328.19 33.7371C1326.85 34.5045 1325.32 34.5151 1323.89 33.7676C1323.3 33.4571 1322.72 33.0145 1322.13 32.4294C1318.59 33.1052 1316.96 31.1421 1316.39 30.1582L1316.38 30.1588Z" fill="#48291A"/>
<path d="M1322.17 21.1897C1322.73 21.5168 1323.37 22.1611 1324.07 23.1252C1326.55 22.1284 1328.18 22.3074 1328.98 23.6623C1329.67 24.8385 1328.93 26.1508 1326.78 27.5991C1327.31 28.6593 1327.6 29.5111 1327.64 30.154C1327.68 30.7969 1327.44 31.2669 1326.92 31.5639C1326.34 31.8902 1325.74 31.8851 1325.1 31.5499C1324.46 31.2141 1323.76 30.5533 1323.01 29.5658C1320.82 30.3997 1319.35 30.1774 1318.6 28.8987C1318.25 28.3106 1318.23 27.7079 1318.54 27.0898C1318.85 26.4718 1319.46 25.8342 1320.38 25.1765C1319.44 23.0815 1319.48 21.7449 1320.5 21.1673C1321.05 20.8563 1321.6 20.8634 1322.17 21.1903L1322.17 21.1897Z" fill="#FFEFE1"/>
<path d="M1397.15 29.1403C1393.46 28.1723 1390.5 25.1742 1388.38 20.2324C1386.17 15.0679 1385.51 11.0464 1386.36 7.92978C1386.85 6.11452 1387.73 4.52409 1388.98 3.20612C1390.28 1.82723 1391.88 0.872532 1393.72 0.3686C1395.53 -0.129793 1397.44 -0.122041 1399.39 0.387428C1401.29 0.886929 1402.88 1.86489 1404.12 3.29472C1404.14 3.30801 1404.15 3.3202 1404.16 3.33238C1404.17 3.32684 1404.19 3.32131 1404.21 3.31577C1406.02 2.6889 1407.9 2.62023 1409.79 3.11419C1411.73 3.62366 1413.39 4.55178 1414.71 5.87086C1416.05 7.20877 1416.95 8.81693 1417.38 10.6521C1417.79 12.4098 1417.75 14.2195 1417.26 16.0326C1416.41 19.1492 1413.8 22.3123 1409.28 25.7047C1404.98 28.9631 1400.9 30.1227 1397.15 29.1403H1397.15Z" fill="#48291A"/>
<path d="M1398.11 25.5862C1395.58 24.9228 1393.49 22.6601 1391.82 18.7992C1389.97 14.4632 1389.35 11.1561 1389.97 8.87787C1390.31 7.64517 1390.89 6.58858 1391.72 5.7103C1392.55 4.83202 1393.55 4.23173 1394.72 3.91054C1395.89 3.59046 1397.12 3.60043 1398.42 3.94045C1399.59 4.24724 1400.55 4.83423 1401.29 5.70033C1401.71 6.16882 1402.05 6.51659 1402.32 6.74253C1402.59 6.96957 1402.85 7.11688 1403.11 7.18444C1403.39 7.25643 1403.69 7.26307 1404.01 7.20216C1404.33 7.14124 1404.81 7.0028 1405.44 6.78794C1406.54 6.40583 1407.67 6.36596 1408.82 6.66721C1410.12 7.00723 1411.19 7.60198 1412.04 8.45257C1412.9 9.30316 1413.46 10.3132 1413.73 11.4817C1414.01 12.6502 1413.98 13.8518 1413.64 15.0845C1413.02 17.3627 1410.81 19.9278 1407.01 22.7808C1403.65 25.326 1400.69 26.2607 1398.11 25.5862Z" fill="#FFEFE1"/>
<path d="M1312 102.285L1320.41 114.709" stroke="#48291A" stroke-width="5" stroke-linecap="round"/>
<path d="M1242 179.285L1256.82 181.624" stroke="#48291A" stroke-width="5" stroke-linecap="round"/>
<path d="M1498.72 81.2847L1493 90.8842" stroke="#48291A" stroke-width="5" stroke-linecap="round"/>
<path d="M1426 73.2847L1428.1 81.1369" stroke="#48291A" stroke-width="5" stroke-linecap="round"/>
<circle cx="1356" cy="71.2847" r="4" fill="#48291A"/>
<path d="M1540 37.182C1538.29 40.3589 1535.74 45.3749 1540.16 48.9564C1545.36 51.2731 1548.78 46.7937 1550.9 43.8703" fill="#48291A"/>
<path d="M1543.19 40.4977C1540.65 38.5851 1539.46 36.6894 1539.97 35.8738C1541.05 34.1603 1544.07 34.577 1547.18 36.2757C1547.6 35.9001 1548.16 35.7899 1548.57 36.0445C1548.99 36.3021 1549.14 36.8541 1548.97 37.3945C1551.75 39.3625 1553.34 41.7579 1552.3 43.4225C1551.68 44.4022 1548.56 43.8964 1544.88 41.6425C1544.27 41.2657 1543.7 40.8817 1543.19 40.4977Z" fill="#48291A"/>
<path d="M1246.91 82.6298C1248.89 85.6503 1252.08 90.2965 1257.42 88.2722C1262.03 84.9516 1259.73 79.8324 1258.18 76.5813" fill="#48291A"/>
<path d="M1251.41 81.5246C1248.47 82.7614 1246.2 82.8545 1245.73 82.0152C1244.74 80.2526 1246.59 77.869 1249.63 76.0366C1249.5 75.4957 1249.67 74.9637 1250.1 74.7326C1250.54 74.4991 1251.1 74.6442 1251.5 75.0503C1254.6 73.6412 1257.51 73.4511 1258.47 75.163C1259.04 76.171 1257.06 78.5945 1253.26 80.6404C1252.62 80.9821 1252 81.2765 1251.41 81.5246Z" fill="#48291A"/>
</svg>
